<svg width="324" height="145" viewBox="0 0 324 145" fill="none" xmlns="http://www.w3.org/2000/svg">
<g clip-path="url(#clip0_26_58)">
<circle cx="13.5" cy="13.5" r="13" fill="#FF75B9" stroke="black"/>
<circle cx="13.5" cy="37.5" r="13" fill="#FF75B9" stroke="black"/>
<circle cx="310.5" cy="37.5" r="13" fill="#FF75B9" stroke="black"/>
<circle cx="13.5" cy="61.5" r="13" fill="#FF75B9" stroke="black"/>
<circle cx="310.5" cy="61.5" r="13" fill="#FF75B9" stroke="black"/>
<circle cx="13.5" cy="85.5" r="13" fill="#FF75B9" stroke="black"/>
<circle cx="310.5" cy="85.5" r="13" fill="#FF75B9" stroke="black"/>
<circle cx="13.5" cy="109.5" r="13" fill="#FF75B9" stroke="black"/>
<circle cx="310.5" cy="109.5" r="13" fill="#FF75B9" stroke="black"/>
<circle cx="13.5" cy="131.5" r="13" fill="#FF75B9" stroke="black"/>
<circle cx="40.5" cy="13.5" r="13" fill="#FF75B9" stroke="black"/>
<circle cx="40.5" cy="131.5" r="13" fill="#FF75B9" stroke="black"/>
<circle cx="67.5" cy="13.5" r="13" fill="#FF75B9" stroke="black"/>
<circle cx="67.5" cy="131.5" r="13" fill="#FF75B9" stroke="black"/>
<circle cx="94.5" cy="13.5" r="13" fill="#FF75B9" stroke="black"/>
<circle cx="94.5" cy="131.5" r="13" fill="#FF75B9" stroke="black"/>
<circle cx="121.5" cy="13.5" r="13" fill="#FF75B9" stroke="black"/>
<circle cx="121.5" cy="131.5" r="13" fill="#FF75B9" stroke="black"/>
<circle cx="148.5" cy="13.5" r="13" fill="#FF75B9" stroke="black"/>
<circle cx="148.5" cy="131.5" r="13" fill="#FF75B9" stroke="black"/>
<circle cx="175.5" cy="13.5" r="13" fill="#FF75B9" stroke="black"/>
<circle cx="175.5" cy="131.5" r="13" fill="#FF75B9" stroke="black"/>
<circle cx="202.5" cy="13.5" r="13" fill="#FF75B9" stroke="black"/>
<circle cx="202.5" cy="131.5" r="13" fill="#FF75B9" stroke="black"/>
<circle cx="229.5" cy="13.5" r="13" fill="#FF75B9" stroke="black"/>
<circle cx="229.5" cy="131.5" r="13" fill="#FF75B9" stroke="black"/>
<circle cx="256.5" cy="13.5" r="13" fill="#FF75B9" stroke="black"/>
<circle cx="256.5" cy="131.5" r="13" fill="#FF75B9" stroke="black"/>
<circle cx="283.5" cy="13.5" r="13" fill="#FF75B9" stroke="black"/>
<circle cx="283.5" cy="131.5" r="13" fill="#FF75B9" stroke="black"/>
<circle cx="310.5" cy="13.5" r="13" fill="#FF75B9" stroke="black"/>
<circle cx="310.5" cy="131.5" r="13" fill="#FF75B9" stroke="black"/>
<path d="M9 10H316V132H9V10Z" fill="#FF75B9"/>
</g>
<defs>
<clipPath id="clip0_26_58">
<rect width="324" height="145" fill="white"/>
</clipPath>
</defs>
</svg>
